<svg xmlns="http://www.w3.org/2000/svg">

<symbol id="code" viewBox="0 0 16 16" fill="none" stroke-width="0" stroke-linecap="round" stroke-linejoin="round"><path d="m8.01.859-2 14 1.98.282 2-14zM12.5 11.5l-1.414-1.414L13.172 8l-2.086-2.086L12.5 4.5 16 8zM2.828 8l2.086 2.086L3.5 11.5 0 8l3.5-3.5 1.414 1.414z" fill="currentColor"/></symbol>

<symbol id="branch" viewBox="0 0 24 24" fill="none"><g stroke-width="2" /><g stroke="currentColor" stroke-linecap="round" stroke-linejoin="round" /><path d="M18 8v7.3c0 1.12 0 1.68-.218 2.108a2 2 0 0 1-.874.874c-.428.218-.988.218-2.108.218H12M18 8a2.5 2.5 0 1 0 0-5 2.5 2.5 0 0 0 0 5m-6 10.5 2-2.5m-2 2.5 2 2.5m-8-5V8.7c0-1.12 0-1.68.218-2.108a2 2 0 0 1 .874-.874C7.52 5.5 8.08 5.5 9.2 5.5H12M6 16a2.5 2.5 0 1 0 0 5 2.5 2.5 0 0 0 0-5m6-10.5L10 8m2-2.5L10 3"/></symbol>

<symbol id="envelope" viewBox="0 0 32 32"><path d="M28 3.75H4A3.254 3.254 0 0 0 .75 7v18A3.254 3.254 0 0 0 4 28.25h24A3.25 3.25 0 0 0 31.25 25V7A3.254 3.254 0 0 0 28 3.75M4 6.25h24a.74.74 0 0 1 .549.248l.001.001L16 15.463 3.45 6.499a.74.74 0 0 1 .549-.249zm24 19.5H4a.75.75 0 0 1-.75-.75V9.429l12.023 8.588q.048.028.108.054l.008.003q.047.028.107.054l.008.003c.145.07.315.113.494.118h.004q.273-.01.503-.121l-.008.003q.067-.03.12-.06l-.006.003q.069-.03.121-.061l-.006.003 12.023-8.588v15.571a.75.75 0 0 1-.75.75z"/></symbol>

<symbol id="github" viewBox="0 0 24 24"><path d="M12 2.247a10 10 0 0 0-3.162 19.487c.5.088.687-.212.687-.475 0-.237-.012-1.025-.012-1.862-2.513.462-3.163-.613-3.363-1.175a3.64 3.64 0 0 0-1.025-1.413c-.35-.187-.85-.65-.013-.662a2 2 0 0 1 1.538 1.025 2.137 2.137 0 0 0 2.912.825 2.1 2.1 0 0 1 .638-1.338c-2.225-.25-4.55-1.112-4.55-4.937a3.9 3.9 0 0 1 1.025-2.688 3.6 3.6 0 0 1 .1-2.65s.837-.262 2.75 1.025a9.43 9.43 0 0 1 5 0c1.912-1.3 2.75-1.025 2.75-1.025a3.6 3.6 0 0 1 .1 2.65 3.87 3.87 0 0 1 1.025 2.688c0 3.837-2.338 4.687-4.562 4.937a2.37 2.37 0 0 1 .674 1.85c0 1.338-.012 2.413-.012 2.75 0 .263.187.575.687.475A10.005 10.005 0 0 0 12 2.247"/></symbol>

<symbol id="twitter" viewBox="0 0 24 24" xml:space="preserve"><path d="M14.095 10.316 22.286 1h-1.94L13.23 9.088 7.551 1H1l8.59 12.231L1 23h1.94l7.51-8.543 6 8.543H23zm-2.658 3.022-.872-1.218L3.64 2.432h2.98l5.59 7.821.869 1.219 7.265 10.166h-2.982z"/></symbol>

</svg>