<svg xmlns="http://www.w3.org/2000/svg">

<symbol id="code" viewBox="0 0 16 16" fill="none" stroke-width="0" stroke-linecap="round" stroke-linejoin="round"><path d="m8.01.859-2 14 1.98.282 2-14zM12.5 11.5l-1.414-1.414L13.172 8l-2.086-2.086L12.5 4.5 16 8zM2.828 8l2.086 2.086L3.5 11.5 0 8l3.5-3.5 1.414 1.414z" fill="currentColor"/></symbol>

<svg id="branch" viewBox="0 0 24 24" fill="none" stroke-width="2" stroke="currentColor" stroke-linecap="round" stroke-linejoin="round"><path d="M18 8v7.3c0 1.12 0 1.68-.218 2.108a2 2 0 0 1-.874.874c-.428.218-.988.218-2.108.218H12M18 8a2.5 2.5 0 1 0 0-5 2.5 2.5 0 0 0 0 5m-6 10.5 2-2.5m-2 2.5 2 2.5m-8-5V8.7c0-1.12 0-1.68.218-2.108a2 2 0 0 1 .874-.874C7.52 5.5 8.08 5.5 9.2 5.5H12M6 16a2.5 2.5 0 1 0 0 5 2.5 2.5 0 0 0 0-5m6-10.5L10 8m2-2.5L10 3"/></symbol>

</svg>